HIERARCHY
ROOT Hips
{
	OFFSET 0.000000 0.000000 0.000000 
	CHANNELS 6 Xposition Yposition Zposition Zrotation Yrotation Xrotation
	JOINT LeftUpLeg
	{
		OFFSET 1.363060 -1.794630 0.839290 
		CHANNELS 3 Zrotation Yrotation Xrotation
		JOINT LeftLeg
		{
			OFFSET 2.448110 -6.726130 0.000000 
			CHANNELS 3 Zrotation Yrotation Xrotation
			JOINT LeftFoot
			{
				OFFSET 2.562200 -7.039590 0.000000 
				CHANNELS 3 Zrotation Yrotation Xrotation
				JOINT LeftToeBase
				{
					OFFSET 0.157640 -0.433110 2.322550 
					CHANNELS 3 Zrotation Yrotation Xrotation
					End Site
					{
						OFFSET 0.000000 0.000000 0.000000 
					}
				}
			}
		}
	}
	JOINT RightUpLeg
	{
		OFFSET -1.305520 -1.794630 0.839290 
		CHANNELS 3 Zrotation Yrotation Xrotation
		JOINT RightLeg
		{
			OFFSET -2.542530 -6.985550 0.000000 
			CHANNELS 3 Zrotation Yrotation Xrotation
			JOINT RightFoot
			{
				OFFSET -2.568260 -7.056230 0.000000 
				CHANNELS 3 Zrotation Yrotation Xrotation
				JOINT RightToeBase
				{
					OFFSET -0.164730 -0.452590 2.363150 
					CHANNELS 3 Zrotation Yrotation Xrotation
					End Site
					{
						OFFSET 0.000000 0.000000 0.000000 
					}
				}
			}
		}
	}
	JOINT Spine
	{
		OFFSET 0.028270 2.035590 -0.193380 
		CHANNELS 3 Zrotation Yrotation Xrotation
		JOINT Spine1
		{
			OFFSET 0.056720 2.048850 -0.042750 
			CHANNELS 3 Zrotation Yrotation Xrotation
			JOINT Neck1
			{
				OFFSET -0.054170 1.746240 0.172020 
				CHANNELS 3 Zrotation Yrotation Xrotation
				JOINT Head
				{
					OFFSET 0.104070 1.761360 -0.123970 
					CHANNELS 3 Zrotation Yrotation Xrotation
					End Site
					{
						OFFSET 0.000000 0.000000 0.000000 
					}
				}
			}
			JOINT LeftArm
			{
				OFFSET 3.362410 1.200890 -0.311210 
				CHANNELS 3 Zrotation Yrotation Xrotation
				JOINT LeftForeArm
				{
					OFFSET 4.983000 -0.000000 -0.000000 
					CHANNELS 3 Zrotation Yrotation Xrotation
					JOINT LeftHand
					{
						OFFSET 3.483560 -0.000000 -0.000000 
						CHANNELS 3 Zrotation Yrotation Xrotation
						JOINT LeftHandIndex1
						{
							OFFSET 0.715260 -0.000000 -0.000000 
							CHANNELS 3 Zrotation Yrotation Xrotation
							End Site
							{
								OFFSET 0.000000 0.000000 0.000000 
							}
						}
					}
				}
			}
			JOINT RightArm
			{
				OFFSET -3.136600 1.374050 -0.404650 
				CHANNELS 3 Zrotation Yrotation Xrotation
				JOINT RightForeArm
				{
					OFFSET -5.241900 -0.000000 -0.000000 
					CHANNELS 3 Zrotation Yrotation Xrotation
					JOINT RightHand
					{
						OFFSET -3.444170 -0.000000 -0.000000 
						CHANNELS 3 Zrotation Yrotation Xrotation
						JOINT RightHandIndex1
						{
							OFFSET -0.622530 -0.000000 -0.000000 
							CHANNELS 3 Zrotation Yrotation Xrotation
							End Site
							{
								OFFSET 0.000000 0.000000 0.000000 
							}
						}
					}
				}
			}
		}
	}
}
MOTION
Frames: 13
Frame Time: 0.041667
10.796610 17.933798 16.514552 174.077393 -0.822625 -160.349928 -27.374260 -13.807452 2.481068 1.879144 3.598878 12.278097 1.801876 -3.273721 -25.263588 13.149600 -18.835500 -69.589400 13.378376 23.611144 -27.450741 -2.161199 -5.658535 16.234138 -1.945031 -4.317772 -20.333621 -3.329400 11.210200 -32.992000 4.930921 -6.977176 -5.717129 5.892169 -3.360778 3.723455 -0.241880 -2.076997 34.133918 -0.667800 0.105300 12.917600 -88.943994 -19.088222 47.198226 16.356878 -25.936043 -3.976401 0.788777 0.601034 15.659250 -7.125000 0.000000 0.000000 78.933312 -9.844739 -53.805296 -1.724308 6.408703 -1.378085 -2.194041 -1.957789 61.125122 7.125000 0.000000 0.000000 
10.937825 18.000915 16.385217 173.199879 -0.814375 -159.524386 -27.528540 -14.090298 1.396693 1.933609 3.741966 12.611897 1.638119 -4.062527 -24.775582 13.292900 -18.885400 -70.032700 12.860959 23.323885 -27.496712 -2.118625 -5.399493 15.450054 -1.968615 -4.275931 -20.449143 -3.175700 10.974200 -32.193000 4.949248 -6.997295 -5.833756 5.959075 -3.364053 3.689280 -0.619632 -1.874055 33.723803 -0.788200 0.127600 12.737800 -88.523237 -18.876559 48.188955 16.923320 -26.541875 -4.142219 0.788931 0.586036 15.603324 -7.125000 0.000000 0.000000 78.479225 -9.751351 -50.798326 -1.582640 6.998347 -1.412570 -2.027059 -2.142325 57.505948 7.125000 0.000000 0.000000 
11.071017 18.053858 16.262135 172.419155 -0.611551 -159.176937 -27.717069 -14.026172 0.990352 1.958028 3.753247 12.646860 1.508526 -4.909072 -24.498989 13.366400 -18.910500 -70.259800 12.537320 23.318747 -27.041282 -2.097004 -5.170614 14.843491 -1.991188 -4.156928 -20.687378 -3.036700 10.754300 -31.455600 4.920703 -6.893677 -5.844028 6.068740 -3.314819 3.623666 -0.786376 -1.757684 33.166198 -0.804000 0.107500 12.480500 -88.108565 -18.732168 48.953728 17.476227 -27.125954 -4.314702 0.800974 0.549478 15.960400 -7.125000 0.000000 0.000000 78.002160 -9.631586 -48.407621 -1.522221 7.511031 -1.450676 -1.882135 -2.297122 54.627772 7.125000 0.000000 0.000000 
11.198059 18.095962 16.150309 171.622241 -0.369974 -159.063139 -28.055189 -14.011006 0.771936 1.971179 3.771779 12.712999 1.443792 -5.500819 -24.477944 13.392900 -18.919500 -70.341400 12.188142 23.336459 -26.505292 -2.100884 -5.039729 14.555406 -2.005622 -3.943462 -20.991802 -3.024100 10.734000 -31.387800 4.869897 -6.825769 -5.856545 6.249669 -3.284090 3.463712 -0.834187 -1.626886 32.505490 -0.756100 0.105200 12.124600 -87.743151 -18.461330 49.220120 17.942231 -27.617099 -4.460578 0.790065 0.551993 16.358359 -7.125000 0.000000 0.000000 77.404656 -9.330141 -47.482903 -1.511108 7.662133 -1.460746 -1.805309 -2.344869 53.670877 7.125000 0.000000 0.000000 
11.321662 18.133793 16.043589 170.945295 -0.128289 -159.146732 -28.335160 -13.846083 0.598178 1.979689 3.806779 12.829682 1.430912 -5.847890 -24.624989 13.363000 -18.909300 -70.249300 12.180107 23.131052 -25.755438 -2.126875 -4.912256 14.327636 -1.989884 -3.569355 -21.176143 -3.041500 10.761900 -31.481100 4.685920 -6.576314 -5.731058 6.097266 -3.177743 3.402138 -0.742518 -1.744397 31.793172 -0.728700 0.019200 11.802800 -87.128031 -18.345359 49.492175 18.257128 -27.951405 -4.598745 0.802447 0.538910 16.495010 -7.125000 0.000000 0.000000 77.093302 -8.345643 -49.239730 -1.603053 7.267265 -1.437156 -1.876761 -2.263977 55.458005 7.125000 0.000000 0.000000 
11.438803 18.173188 15.930616 170.372425 0.187927 -159.417245 -28.590101 -13.453278 0.606592 1.975251 3.793111 12.834961 1.441933 -6.008057 -24.763764 13.266000 -18.876100 -69.949700 12.503480 22.897201 -24.595873 -2.149213 -4.683121 13.878684 -1.976999 -3.258304 -21.233513 -3.047600 10.771700 -31.513800 4.501688 -6.308465 -5.573442 5.937145 -3.067959 3.395152 -0.602321 -1.816087 30.896933 -0.645600 -0.062800 11.379400 -86.599749 -18.075580 49.260553 18.405297 -28.112637 -4.672393 0.784915 0.575308 16.396368 -7.125000 0.000000 0.000000 76.611386 -7.238727 -51.167398 -1.689238 6.795588 -1.408787 -1.995782 -2.118658 58.031834 7.125000 0.000000 0.000000 
11.551151 18.212270 15.815038 169.770924 0.377309 -159.540847 -28.850809 -13.275763 0.400863 1.968763 3.781678 12.816067 1.451107 -6.057661 -24.836869 13.132400 -18.829500 -69.536300 12.658079 22.752310 -23.595248 -2.157641 -4.480041 13.471091 -1.997640 -3.143720 -21.386518 -2.984700 10.670200 -31.175400 4.378772 -6.133505 -5.517426 5.925452 -2.993948 3.340381 -0.461910 -1.804098 29.939085 -0.520400 -0.116600 10.893600 -86.194598 -17.584060 48.589179 18.397969 -28.112834 -4.698040 0.775020 0.596778 16.055481 -7.125000 0.000000 0.000000 75.946339 -6.335566 -52.239304 -1.752181 6.502743 -1.381384 -2.077183 -1.947983 60.304073 7.125000 0.000000 0.000000 
11.662456 18.246141 15.702691 169.307548 0.301174 -159.331020 -28.800981 -13.466689 -0.299734 1.974880 3.818988 12.868910 1.455274 -6.095366 -24.940491 12.972700 -18.772300 -69.040700 12.734699 22.640015 -23.134030 -2.158200 -4.398406 13.299110 -2.028176 -3.101595 -21.680543 -2.862700 10.469400 -30.510500 4.249265 -6.042441 -5.503258 5.681326 -2.956130 3.443220 -0.118716 -1.835602 28.914337 -0.332000 -0.165600 10.370800 -85.593678 -17.030510 47.752372 18.321045 -28.033308 -4.691872 0.760813 0.617628 15.435185 -7.125000 0.000000 0.000000 75.465963 -5.432313 -52.636476 -1.786429 6.370118 -1.359572 -2.136247 -1.785810 62.215842 7.125000 0.000000 0.000000 
11.771260 18.271153 15.597118 169.058070 0.128481 -158.839779 -28.400552 -13.905102 -1.408161 1.987371 3.891828 12.958966 1.469999 -6.064869 -25.126406 12.769900 -18.697500 -68.409300 12.855692 22.558501 -23.201411 -2.152852 -4.404206 13.274306 -2.039682 -3.031878 -21.953707 -2.780000 10.330200 -30.052700 4.207810 -5.994790 -5.613611 5.545237 -2.919550 3.395268 0.242701 -1.780355 28.062247 -0.123200 -0.164300 9.924300 -85.250817 -16.303474 46.507837 18.064085 -27.758415 -4.617331 0.750924 0.628833 15.072130 -7.125000 0.000000 0.000000 74.839042 -4.738633 -51.490896 -1.670932 6.429932 -1.343512 -2.132777 -1.689610 62.667800 7.125000 0.000000 0.000000 
11.876521 18.288558 15.493212 168.969784 0.002368 -158.394845 -27.817686 -14.344938 -2.517630 1.994884 3.956992 13.015867 1.510104 -5.923957 -25.406127 12.560900 -18.617800 -67.756000 13.223612 22.335140 -23.277283 -2.161531 -4.414193 13.272367 -2.005506 -2.725729 -22.103108 -2.751800 10.281900 -29.894600 4.189104 -5.919233 -5.662362 5.451051 -2.880763 3.530780 0.635291 -1.700731 27.419262 0.098300 -0.143200 9.588900 -85.040880 -15.676397 44.927180 17.608360 -27.265902 -4.484016 0.754075 0.621539 15.424411 -7.125000 0.000000 0.000000 74.125386 -3.908972 -49.828453 -1.499700 6.539267 -1.326813 -2.098996 -1.639826 62.167827 7.125000 0.000000 0.000000 
11.979697 18.307213 15.387430 168.848534 -0.141908 -158.516422 -27.365670 -14.624101 -3.039651 1.994338 3.957494 12.971217 1.552792 -5.818407 -25.650127 12.387100 -18.549500 -67.210500 13.978773 21.796500 -22.340749 -2.193863 -4.264903 13.042922 -1.975503 -2.291921 -22.237153 -2.688000 10.171900 -29.535300 4.176531 -5.837070 -5.648003 5.527092 -2.848153 3.500938 0.906291 -1.592493 27.106616 0.286000 -0.114200 9.432100 -84.846088 -14.916515 43.402672 17.155056 -26.770306 -4.350626 0.754533 0.616546 16.096081 -7.125000 0.000000 0.000000 73.330813 -3.039350 -47.837499 -1.371685 6.791821 -1.332114 -2.047520 -1.650924 60.923897 7.125000 0.000000 0.000000 
12.071826 18.331183 15.273936 168.675413 -0.150335 -159.354805 -27.231946 -14.619312 -2.613851 1.969141 3.830698 12.685661 1.624033 -5.594265 -25.868375 12.227000 -18.485000 -66.706600 15.059796 21.036300 -20.243924 -2.245474 -3.946416 12.595931 -1.953119 -1.757301 -22.320895 -2.646000 10.098600 -29.296600 4.083004 -5.634438 -5.476350 5.561050 -2.775994 3.436316 0.963392 -1.468602 26.875000 0.374100 -0.081900 9.328500 -84.496542 -14.109676 42.392450 16.868087 -26.414644 -4.209200 0.747180 0.607242 16.311340 -7.125000 0.000000 0.000000 72.623999 -1.898703 -46.665069 -1.340715 6.970630 -1.335734 -2.013116 -1.640942 60.010230 7.125000 0.000000 0.000000 
12.158431 18.349942 15.170239 168.605669 -0.207149 -159.926401 -26.895069 -14.785851 -2.708820 1.965921 3.796891 12.601531 1.660496 -5.431065 -25.984199 12.055400 -18.414000 -66.164200 16.000695 20.477510 -18.657774 -2.275139 -3.724492 12.310171 -1.945312 -1.404549 -22.423046 -2.634800 10.079100 -29.233100 3.988330 -5.388898 -5.355722 5.506880 -2.675893 3.371068 0.826916 -1.359517 26.685168 0.362000 -0.050800 9.223400 -84.080332 -13.256852 41.558950 16.737714 -26.263985 -4.178522 0.754702 0.591180 15.827659 -7.125000 0.000000 0.000000 72.018711 -0.662255 -45.730647 -1.294475 7.067706 -1.326169 -1.989749 -1.602895 59.012190 7.125000 0.000000 0.000000 
